<?xml version="1.0" standalone="no"?>
<!DOCTYPE svg PUBLIC "-//W3C//DTD SVG 20010904//EN"
 "http://www.w3.org/TR/2001/REC-SVG-20010904/DTD/svg10.dtd">
<svg version="1.0" xmlns="http://www.w3.org/2000/svg"
 width="1000.000000pt" height="1000.000000pt" viewBox="0 0 1000.000000 1000.000000"
 preserveAspectRatio="xMidYMid meet">

<g transform="translate(0.000000,1000.000000) scale(0.100000,-0.100000)"
fill="#000000" stroke="none">
<path d="M4645 9979 c-1199 -85 -2327 -601 -3180 -1454 -762 -763 -1259 -1753
-1409 -2810 -60 -419 -67 -872 -21 -1285 49 -434 167 -903 326 -1298 64 -160
216 -473 298 -617 504 -878 1268 -1589 2176 -2026 429 -206 862 -344 1330
-423 313 -52 424 -60 825 -61 394 0 480 6 780 51 1430 217 2710 1065 3480
2304 575 927 829 2019 725 3117 -110 1153 -617 2226 -1440 3048 -701 701
-1573 1171 -2531 1364 -439 88 -924 120 -1359 90z m326 -1638 c339 -69 617
-214 859 -447 l88 -85 114 17 c153 22 430 15 572 -16 348 -74 636 -230 877
-472 333 -336 515 -798 496 -1263 -6 -153 -14 -207 -54 -367 l-26 -106 42 -49
c113 -127 248 -372 309 -560 63 -193 77 -286 77 -528 0 -193 -3 -233 -24 -329
-72 -338 -230 -634 -461 -867 -63 -64 -152 -144 -198 -177 -171 -126 -376
-224 -569 -273 l-92 -23 -17 -46 c-96 -260 -236 -474 -430 -660 -235 -224
-514 -370 -844 -442 -93 -20 -133 -22 -340 -22 -206 0 -247 2 -335 22 -213 47
-419 132 -582 237 -110 72 -167 118 -269 218 l-82 79 -48 -10 c-111 -24 -300
-34 -430 -23 -303 26 -577 121 -824 286 -607 406 -895 1178 -696 1867 l23 76
-55 69 c-351 435 -469 1011 -317 1540 131 456 440 837 854 1052 102 53 188 86
324 125 l108 31 43 105 c92 228 206 400 376 570 275 275 626 444 1030 494 89
11 407 -4 501 -23z"/>
<path d="M4416 7904 c-442 -80 -821 -410 -965 -840 -61 -181 -61 -183 -61
-1124 l0 -857 280 -162 c153 -88 282 -161 285 -161 3 0 5 430 5 956 0 707 3
967 12 996 24 81 50 98 780 519 526 303 695 405 688 414 -19 23 -154 109 -229
147 -94 47 -231 92 -340 113 -104 19 -346 19 -455 -1z"/>
<path d="M6175 7394 c-159 -17 -302 -54 -423 -109 -41 -19 -391 -218 -778
-441 l-704 -406 0 -329 c0 -181 2 -329 5 -329 3 0 368 210 813 467 444 256
827 475 851 486 34 15 58 18 102 14 53 -5 102 -31 750 -405 382 -221 701 -404
710 -407 20 -8 29 53 29 205 0 594 -424 1112 -1008 1229 -98 20 -273 32 -347
25z"/>
<path d="M2835 6661 c-251 -121 -460 -325 -586 -574 -17 -32 -45 -104 -64
-160 -104 -312 -84 -659 55 -947 88 -180 237 -363 385 -471 33 -24 381 -229
774 -456 l714 -413 283 163 c156 89 282 165 281 169 -1 4 -373 222 -827 484
-454 262 -834 483 -844 492 -10 10 -29 40 -42 67 l-24 50 0 818 c0 647 -3 817
-12 817 -7 0 -49 -18 -93 -39z"/>
<path d="M5605 6184 c-148 -86 -274 -159 -278 -163 -4 -4 365 -223 820 -486
455 -262 838 -486 850 -498 13 -11 32 -39 43 -62 20 -40 20 -61 20 -868 l0
-827 28 11 c208 79 443 265 570 452 154 225 225 452 225 722 0 152 -16 262
-58 391 -78 238 -239 466 -434 612 -81 61 -1479 872 -1502 872 -8 0 -135 -70
-284 -156z"/>
<path d="M4664 5642 c-176 -103 -337 -197 -357 -209 l-37 -22 0 -418 0 -419
366 -210 366 -211 364 210 364 210 0 421 0 421 -360 208 c-198 114 -365 207
-372 206 -7 0 -157 -85 -334 -187z"/>
<path d="M6040 4262 l0 -968 -26 -52 c-14 -29 -38 -61 -53 -71 -15 -11 -339
-199 -720 -420 l-693 -400 68 -50 c395 -289 946 -317 1369 -69 320 188 536
493 612 866 16 79 18 164 18 946 l0 859 -283 163 c-156 90 -285 164 -288 164
-2 0 -4 -436 -4 -968z"/>
<path d="M4920 3744 c-443 -257 -825 -475 -849 -486 -33 -15 -59 -19 -105 -16
-60 4 -75 12 -766 411 -387 223 -708 403 -713 398 -5 -5 -11 -66 -14 -137 -29
-670 450 -1232 1120 -1315 221 -27 495 20 692 119 72 36 1418 812 1433 826 9
9 12 85 10 338 l-3 327 -805 -465z"/>
</g>
</svg>
